<svg version="1.1" id="Layer_1" xmlns="http://www.w3.org/2000/svg" x="0" y="0" viewBox="0 0 610.9 179.7" style="enable-background:new 0 0 610.9 179.7" xml:space="preserve"><style>.st0{fill:#070606}</style><path class="st0" d="M89.8 116.8H77.9v-12h11.9v-18H77.9V74.9h11.9v-18H59.9v29.9h-12V44.9h41.9V27H29.9v125.7h18v-47.9h12v47.9h18v-17.9h11.9z"/><path class="st0" d="M89.8 44.9h12v12h-12zM89.8 74.9h12v12h-12zM119.8 104.8h-30v12h42V74.9h-12z"/><path class="st0" d="M0 0v179.7h179.7V0H0zm149.7 134.8H89.8v41.9H3V3h86.8v24h29.9v29.9h29.9l.1 77.9zM220.1 67.7V.6H234c5 0 8.6 1.4 10.9 4.3 2.3 2.9 3.5 6.9 3.5 12v7.3c0 5.3-1.3 9.3-3.8 12-2.5 2.6-6.5 4-11.7 4h-8.3v27.6h-4.5v-.1zm4.4-31.6h8.3c3.9 0 6.7-.9 8.5-2.8 1.8-1.8 2.6-4.8 2.6-8.8v-7.9c0-3.9-.8-6.8-2.3-8.9s-4.1-3.1-7.7-3.1h-9.5l.1 31.5zM259.2 51.3V.6h4.4v50.9c0 3.9.8 7 2.4 9.3s4.2 3.4 7.7 3.4 6-1.1 7.7-3.4c1.6-2.3 2.4-5.4 2.4-9.3V.6h4.1v50.8c0 5.1-1.2 9.2-3.5 12.3s-5.9 4.6-10.8 4.6-8.5-1.5-10.8-4.6c-2.4-3.2-3.6-7.3-3.6-12.4zM299.1 51.5V48h4.2v3.7c0 3.8.8 6.9 2.4 9.1s4.2 3.3 7.7 3.3 6.1-1.1 7.7-3.3 2.4-5.2 2.4-9.1c0-2.2-.4-4.2-1.3-6s-2.1-3.4-3.5-4.8-3-2.6-4.7-3.9c-1.7-1.3-3.4-2.6-5.2-3.9-1.7-1.3-3.3-2.7-4.7-4.2-1.4-1.5-2.6-3.3-3.5-5.4s-1.3-4.4-1.3-7c0-5.2 1.2-9.3 3.5-12.2 2.4-2.9 5.9-4.4 10.7-4.4 3.3 0 6 .7 8.2 2.2s3.7 3.4 4.7 5.9c.9 2.5 1.4 5.3 1.4 8.7v1.4h-4.2v-1.7c0-3.8-.8-6.8-2.4-9.1-1.6-2.2-4.1-3.4-7.6-3.4s-6 1.1-7.6 3.3-2.4 5.2-2.4 9c0 2.2.4 4.2 1.3 6.1.9 1.9 2.1 3.5 3.5 4.8 1.4 1.4 3 2.7 4.7 3.9 1.7 1.3 3.4 2.6 5.2 3.9 1.7 1.3 3.3 2.7 4.7 4.2 1.4 1.5 2.6 3.2 3.5 5.3s1.3 4.4 1.3 6.9c0 5.1-1.2 9.2-3.6 12.2s-6 4.5-10.9 4.5-8.5-1.5-10.9-4.5c-2.1-2.8-3.3-6.9-3.3-12zM339.3 67.7V.6h4.4v31.6h20.9V.6h4.5v67.1h-4.5V36.1h-20.9v31.6h-4.4zM381 67.7V.6h4.4v35.5L407.3.6h4.6l-19.1 31.3 20.4 35.9h-4.6L390 36.1l-4.6 7.3v24.3H381zM422.9 67.7 437.6.5h6.5L459 67.7h-4.4l-3.3-14.8h-21L427 67.7h-4.1zm8.3-18.7h19.3l-9.7-43.3-9.6 43.3zM469.9 67.7V.6h14c9.6 0 14.4 5.1 14.4 15.2v5.9c0 7.8-3.2 12.4-9.7 13.9 6.5 1.4 9.7 6 9.7 13.7v10.4c0 3.7.5 6.4 1.6 8.1h-4.6c-1-1.7-1.4-4.3-1.4-8.1V49.1c0-4.2-1.1-7.2-3.2-8.9s-5.2-2.6-9.4-2.6h-7v30l-4.4.1zm4.4-34h7.1c4.2 0 7.4-.8 9.4-2.4s3-4.6 3-8.8v-6.3c0-3.7-.8-6.6-2.4-8.6s-4.2-2.9-7.7-2.9h-9.5v29h.1zM511.1 67.7V.6h26.5v4h-22.1v27.1h18.3v4h-18.3v28h22.1v4h-26.5zM549 67.7V.6h25.5v4h-21.1v28.7h17.4v4h-17.4v30.4H549zM585.4 67.7V.6h25.5v4h-21.1v28.7h17.4v4h-17.4v30.4h-4.4zM220.1 148.1V80.9H234c5 0 8.6 1.4 10.9 4.3s3.5 6.9 3.5 12v7.3c0 5.3-1.3 9.3-3.8 12-2.5 2.6-6.5 4-11.7 4h-8.3v27.7h-4.5v-.1zm4.4-31.7h8.3c3.9 0 6.7-.9 8.5-2.8 1.8-1.8 2.6-4.8 2.6-8.9v-7.9c0-3.9-.8-6.8-2.3-8.9s-4.1-3.1-7.7-3.1h-9.5l.1 31.6zM261.8 148.1V80.9h14c9.6 0 14.4 5.1 14.4 15.2v5.9c0 7.8-3.2 12.4-9.7 13.9 6.5 1.4 9.7 6 9.7 13.7V140c0 3.7.5 6.4 1.6 8.1h-4.6c-1-1.7-1.5-4.3-1.5-8.1v-10.5c0-4.2-1.1-7.2-3.2-8.9-2.1-1.7-5.2-2.6-9.4-2.6h-7v30h-4.3v.1zm4.4-34.1h7.1c4.2 0 7.4-.8 9.4-2.4s3-4.6 3-8.8v-6.3c0-3.7-.8-6.6-2.4-8.6s-4.2-3-7.7-3h-9.5V114h.1zM305.2 131.7V97.3c0-5.2 1.2-9.3 3.7-12.4s6.1-4.6 11-4.6c5 0 8.7 1.5 11.2 4.6s3.7 7.2 3.7 12.4v34.4c0 5.2-1.2 9.3-3.7 12.4-2.5 3.1-6.2 4.6-11.2 4.6-4.9 0-8.5-1.5-11-4.6-2.5-3.2-3.7-7.3-3.7-12.4zm4.4.3c0 3.9.8 7 2.5 9.3s4.2 3.4 7.8 3.4c3.6 0 6.2-1.1 7.9-3.4 1.7-2.3 2.5-5.4 2.5-9.2V97c0-3.9-.8-7-2.5-9.2-1.7-2.3-4.3-3.4-7.9-3.4-3.5 0-6.1 1.1-7.8 3.4-1.7 2.3-2.5 5.4-2.5 9.3V132zM348.6 148.1V80.9h14.8c5 0 8.7 1.5 11.2 4.5s3.7 7.1 3.7 12.2v33.8c0 5.2-1.2 9.2-3.7 12.2s-6.2 4.5-11.2 4.5h-14.8zm4.5-4.1h10.3c3.6 0 6.3-1.1 8-3.3s2.6-5.3 2.6-9.1V97.4c0-3.9-.9-6.9-2.6-9.2s-4.4-3.4-8-3.4h-10.3V144zM392 131.7V80.9h4.4v51c0 3.9.8 7 2.4 9.3s4.2 3.4 7.7 3.4 6.1-1.1 7.7-3.4c1.6-2.3 2.4-5.4 2.4-9.3v-51h4.1v50.8c0 5.1-1.2 9.2-3.5 12.3s-5.9 4.6-10.8 4.6-8.5-1.5-10.8-4.6c-2.4-3.1-3.6-7.2-3.6-12.3zM434.6 131.7V97.3c0-5.2 1.2-9.3 3.6-12.4s6-4.6 10.9-4.6 8.5 1.5 10.9 4.6 3.6 7.2 3.6 12.4v5.5h-4.2V97c0-3.9-.8-7-2.4-9.2-1.6-2.3-4.2-3.4-7.7-3.4s-6.1 1.1-7.7 3.4-2.4 5.4-2.4 9.2v35c0 3.9.8 6.9 2.4 9.2 1.6 2.2 4.2 3.4 7.7 3.4s6.1-1.1 7.7-3.4c1.6-2.2 2.4-5.3 2.4-9.2v-8h4.2v7.7c0 5.2-1.2 9.3-3.6 12.4-2.4 3.1-6 4.6-10.9 4.6s-8.5-1.5-10.9-4.6c-2.4-3.2-3.6-7.3-3.6-12.4zM475.1 84.9v-4h31.8v4h-13.7v63.2h-4.4V84.9h-13.7zM518.9 148.1V80.9h4.4v67.2h-4.4zM537.4 131.7V97.3c0-5.2 1.2-9.3 3.7-12.4s6.1-4.6 11-4.6c5 0 8.7 1.5 11.2 4.6s3.7 7.2 3.7 12.4v34.4c0 5.2-1.2 9.3-3.7 12.4-2.5 3.1-6.2 4.6-11.2 4.6-4.9 0-8.5-1.5-11-4.6-2.5-3.2-3.7-7.3-3.7-12.4zm4.4.3c0 3.9.8 7 2.5 9.3s4.2 3.4 7.8 3.4 6.2-1.1 7.9-3.4c1.7-2.3 2.5-5.4 2.5-9.2V97c0-3.9-.8-7-2.5-9.2-1.7-2.3-4.3-3.4-7.9-3.4-3.5 0-6.1 1.1-7.8 3.4s-2.5 5.4-2.5 9.3V132zM580.8 148.1V80.9h5.9l20.1 56.8V80.9h4.1v67.2h-5l-21-59.9v59.9h-4.1z"/><path d="M235.9 179.4h-1.8l.1-11.2-5.4 11.2h-1.7l-5.3-11.2c.1 7.2.1 10.9.1 11.2h-1.7v-13.1h2.6l5.3 11.1 5.3-11.1h2.5v13.1zM248.8 179.4h-1.9v-13.1h1.9v13.1zM273.6 179.4h-1.8l-10.3-10.8v10.8h-1.8v-13.1h1.9l10.2 10.8c0-6.8-.1-10.4-.1-10.8h1.8v13.1zM284.6 166.3h1.9v8c0 .5 0 .9.1 1.3s.2.6.4.9c.2.2.3.4.4.5.1.1.2.2.4.3.9.6 2.1.9 3.6.9h.8c.3 0 .7-.1 1.3-.2.5-.1 1-.3 1.5-.6.4-.3.8-.6 1-1.1.2-.4.3-1.1.3-1.9v-8h1.9v7.9c0 1.1-.1 1.9-.4 2.4-.9 2.1-3 3.1-6.4 3.1h-.9c-.3 0-.7-.1-1.3-.2s-1-.2-1.5-.4c-.4-.2-.9-.4-1.4-.8-.5-.4-.8-.8-1.1-1.3-.4-.7-.6-1.7-.6-3v-7.8zM319.5 167.8h-5.4v11.5h-1.9v-11.5H307v-1.6h12.6v1.6zM330.3 179.4h-1.9v-13.1h1.9v13.1zM354.4 179.4h-2.2l-1.6-3.2h-8.1l-1.6 3.2h-2.1l6.8-13.1h2l6.8 13.1zm-4.5-4.8-3.2-6.5-3.3 6.5h6.5zM375.6 179.4H363v-13.1h12.1v1.6h-10.2v3.9h10v1.6h-10v4.4h10.7v1.6zM396.8 176.7l1.7-.7.5.5c.1.1.3.3.6.4.3.2.6.3 1 .5 1 .4 2.3.6 3.8.6 1.6 0 2.7-.3 3.5-.9.6-.5.9-1 .9-1.8 0-.4-.1-.7-.3-1-.2-.3-.5-.5-.8-.6-.4-.1-.7-.2-1-.3-.3-.1-.7-.1-1.2-.1l-2-.2c-1.1-.1-1.8-.2-2.2-.2-.4-.1-.9-.2-1.3-.3s-.9-.4-1.2-.7c-.6-.6-.9-1.3-.9-2.2 0-1.3.6-2.3 1.8-3 1-.6 2.5-.9 4.3-.9 3.1 0 5.3.9 6.5 2.6l-1.7.7c-.6-.6-1.3-1-2.1-1.3-.7-.3-1.7-.4-2.8-.4-.5 0-1 0-1.5.1s-.9.2-1.4.3c-.4.1-.8.4-1 .7-.3.3-.4.7-.4 1.1 0 .3.1.6.2.8.1.2.4.4.6.5.3.1.6.2.8.3.3.1.6.1 1 .1l4.1.4c1.4.1 2.4.5 3.2 1.1.7.6 1.1 1.4 1.1 2.5 0 .5-.1 1.1-.3 1.5-.2.5-.5.9-1 1.3s-1.1.8-2 1c-.9.3-1.9.4-3.1.4-1.6 0-3.1-.2-4.5-.7-1.3-.3-2.3-1.1-2.9-2.1zM422.4 179.4h-1.9v-13.1h1.9v13.1zM447.2 179.4h-1.6v-1.8c-.5.6-1.3 1.1-2.2 1.5-1 .4-2.1.6-3.5.6-2.3 0-4.1-.7-5.4-2s-2.1-3-2.1-4.9c0-2 .7-3.6 2.1-4.9 1.4-1.3 3.3-1.9 5.7-1.9 1.4 0 2.8.3 4.1.9 1.3.6 2.2 1.4 2.8 2.6l-1.8.6c-.5-.7-1.1-1.3-1.9-1.7-.8-.5-1.8-.7-3-.7-1.7 0-3.1.5-4.2 1.4-1.2.9-1.7 2.2-1.7 3.8 0 1.7.6 3 1.7 4 1.2 1 2.5 1.4 4.2 1.4 1 0 1.9-.2 2.8-.6.9-.4 1.6-1 2.1-1.8.2-.4.4-1 .5-1.7H440v-1.6h7.3v6.8zM471.7 179.4h-1.8l-10.3-10.8v10.8h-1.8v-13.1h1.9l10.2 10.8c0-6.8-.1-10.4-.1-10.8h1.8v13.1zM484.6 179.4h-1.9v-13.1h1.9v13.1zM507.2 167.9h-9.8v4.2h9.4v1.5h-9.4v5.8h-1.8v-13.1h11.7v1.6zM518.8 179.4h-1.9v-13.1h1.9v13.1zM542.3 175.4l2 .4c-1.3 2.6-3.8 3.9-7.6 3.9-1.5 0-2.9-.3-4-.8-1.2-.5-2.1-1.3-2.8-2.4-.7-1.1-1.1-2.4-1.1-3.9 0-2.1.7-3.7 2.1-5 1.4-1.2 3.3-1.9 5.8-1.9 3.5 0 6 1.3 7.4 3.8l-2 .4c-.5-.9-1.2-1.6-2.1-2-.9-.4-2-.6-3.2-.6-.6 0-1.2.1-1.7.2-.6.1-1.1.3-1.6.5-.5.3-1 .6-1.4 1-.4.4-.7.9-.9 1.5-.2.6-.4 1.3-.4 2 0 1.8.6 3.1 1.7 4 1.2.9 2.7 1.4 4.5 1.4 2.6.2 4.3-.7 5.3-2.5zM567 179.4h-2.2l-1.6-3.2h-8.1l-1.6 3.2h-2.1l6.8-13.1h2l6.8 13.1zm-4.6-4.8-3.2-6.5-3.3 6.5h6.5zM589.4 179.4h-1.8l-10.3-10.8v10.8h-1.8v-13.1h1.9l10.2 10.8c0-6.8-.1-10.4-.1-10.8h1.8v13.1zM610.9 167.8h-5.4v11.5h-1.9v-11.5h-5.3v-1.6h12.6v1.6z"/></svg>